<svg width="48" height="48" viewBox="0 0 48 48" fill="none" xmlns="http://www.w3.org/2000/svg">
<rect width="48" height="48" fill="#F5F5F5"/>
<path d="M-18132 -1004C-18132 -1005.1 -18131.1 -1006 -18130 -1006H10009C10010.1 -1006 10011 -1005.1 10011 -1004V2790C10011 2791.1 10010.1 2792 10009 2792H-18130C-18131.1 2792 -18132 2791.1 -18132 2790V-1004Z" fill="#E5E5E5"/>
<path d="M-18130 -1005H10009V-1007H-18130V-1005ZM10010 -1004V2790H10012V-1004H10010ZM10009 2791H-18130V2793H10009V2791ZM-18131 2790V-1004H-18133V2790H-18131ZM-18130 2791C-18130.6 2791 -18131 2790.55 -18131 2790H-18133C-18133 2791.66 -18131.7 2793 -18130 2793V2791ZM10010 2790C10010 2790.55 10009.6 2791 10009 2791V2793C10010.7 2793 10012 2791.66 10012 2790H10010ZM10009 -1005C10009.6 -1005 10010 -1004.55 10010 -1004H10012C10012 -1005.66 10010.7 -1007 10009 -1007V-1005ZM-18130 -1007C-18131.7 -1007 -18133 -1005.66 -18133 -1004H-18131C-18131 -1004.55 -18130.6 -1005 -18130 -1005V-1007Z" fill="black" fill-opacity="0.1"/>
<rect x="-716" y="-176" width="1150" height="380" fill="white"/>
<rect opacity="0.3" x="-20.5" y="-15.5" width="179" height="79" rx="4.5" fill="white" stroke="#073127"/>
<path d="M36.5933 1.84497V7.24512H11.4082V1.84497C11.4082 0.825073 12.2331 0 13.2532 0H34.7481C35.7682 0 36.5933 0.825073 36.5933 1.84497Z" fill="#E5E8EF"/>
<path d="M11.4082 3.59229H36.5932V7.24479H11.4082V3.59229Z" fill="#CDD4DF"/>
<path d="M41.4375 7.62769V45.7502H6.5625V7.62769C6.5625 6.2251 7.69482 5.09277 9.0899 5.09277H38.9099C40.3048 5.09277 41.4375 6.2251 41.4375 7.62769Z" fill="#E5E8EF"/>
<path d="M41.4375 45.7524H6.5625L38.9081 5.09619C40.305 5.09619 41.4375 6.22865 41.4375 7.62561V45.7524Z" fill="#CDD4DF"/>
<path d="M28.8372 36.2476V45.8024H19.1621V36.2476C19.1621 35.3547 19.8898 34.6274 20.7822 34.6274H27.2173C28.1097 34.6274 28.8372 35.3547 28.8372 36.2476Z" fill="#435E88"/>
<path d="M19.1641 45.8002L27.2173 34.6274C28.1117 34.6274 28.8368 35.3525 28.8368 36.2469V45.8002H19.1641Z" fill="#33527D"/>
<path d="M37.6874 28.3798V33.6898C37.6874 34.3197 37.1773 34.8298 36.5474 34.8298H31.2299C30.5998 34.8298 30.0898 34.3197 30.0898 33.6898V28.3798C30.0898 27.7499 30.5998 27.2397 31.2299 27.2397H36.5474C37.1773 27.2397 37.6874 27.7499 37.6874 28.3798Z" fill="#5CBEFF"/>
<path d="M37.6884 28.3796V33.6897C37.6884 34.3196 37.1782 34.8297 36.5483 34.8297H31.2308C30.8408 34.8297 30.5033 34.6345 30.3008 34.3423L37.2908 27.5249C37.5382 27.7271 37.6884 28.0347 37.6884 28.3796Z" fill="#079CFF"/>
<path d="M37.6874 19.1849V24.495C37.6874 25.1249 37.1773 25.6346 36.5474 25.6346H31.2299C30.5998 25.6346 30.0898 25.1249 30.0898 24.495V19.1849C30.0898 18.5547 30.5998 18.0449 31.2299 18.0449H36.5474C37.1773 18.0449 37.6874 18.5547 37.6874 19.1849Z" fill="#5CBEFF"/>
<path d="M37.6884 19.1848V24.4949C37.6884 25.1248 37.1782 25.6349 36.5483 25.6349H31.2308C30.8408 25.6349 30.5033 25.4397 30.3008 25.1475L37.2908 18.3301C37.5382 18.5322 37.6884 18.8398 37.6884 19.1848Z" fill="#079CFF"/>
<path d="M37.6874 9.98962V15.2997C37.6874 15.9296 37.1773 16.4397 36.5474 16.4397H31.2299C30.5998 16.4397 30.0898 15.9296 30.0898 15.2997V9.98962C30.0898 9.35974 30.5998 8.84961 31.2299 8.84961H36.5474C37.1773 8.84961 37.6874 9.35974 37.6874 9.98962Z" fill="#5CBEFF"/>
<path d="M37.6884 9.99048V15.3005C37.6884 15.9304 37.1782 16.4406 36.5483 16.4406H31.2308C30.8408 16.4406 30.5033 16.2454 30.3008 15.9531L37.2908 9.13574C37.5382 9.33789 37.6884 9.64551 37.6884 9.99048Z" fill="#079CFF"/>
<path d="M27.8025 19.1849V24.495C27.8025 25.1249 27.2925 25.6346 26.6625 25.6346H21.3451C20.715 25.6346 20.2051 25.1249 20.2051 24.495V19.1849C20.2051 18.5547 20.715 18.0449 21.3451 18.0449H26.6625C27.2925 18.0449 27.8025 18.5547 27.8025 19.1849Z" fill="#5CBEFF"/>
<path d="M27.7997 19.1848V24.4949C27.7997 25.1248 27.2896 25.6349 26.6597 25.6349H21.3421C20.9521 25.6349 20.6146 25.4397 20.4121 25.1475L27.4022 18.3301C27.6495 18.5322 27.7997 18.8398 27.7997 19.1848Z" fill="#079CFF"/>
<path d="M27.7988 9.9906V15.3007C27.7988 15.9305 27.2886 16.4407 26.6588 16.4407H21.3412C20.7111 16.4407 20.2012 15.9305 20.2012 15.3007V9.9906C20.2012 9.36072 20.7111 8.85059 21.3412 8.85059H26.6588C27.2886 8.85059 27.7988 9.36072 27.7988 9.9906Z" fill="#5CBEFF"/>
<path d="M27.7997 9.99048V15.3005C27.7997 15.9304 27.2896 16.4406 26.6597 16.4406H21.3421C20.9521 16.4406 20.6146 16.2454 20.4121 15.9531L27.4022 9.13574C27.6495 9.33789 27.7997 9.64551 27.7997 9.99048Z" fill="#079CFF"/>
<path d="M17.9099 28.3798V33.6898C17.9099 34.3197 17.4 34.8298 16.7699 34.8298H11.4525C10.8224 34.8298 10.3125 34.3197 10.3125 33.6898V28.3798C10.3125 27.7499 10.8224 27.2397 11.4525 27.2397H16.7699C17.4 27.2397 17.9099 27.7499 17.9099 28.3798Z" fill="#5CBEFF"/>
<path d="M17.911 28.3796V33.6897C17.911 34.3196 17.4009 34.8297 16.771 34.8297H11.4534C11.0634 34.8297 10.726 34.6345 10.5234 34.3423L17.5135 27.5249C17.7609 27.7271 17.911 28.0347 17.911 28.3796Z" fill="#079CFF"/>
<path d="M17.9101 19.1844V24.4945C17.9101 25.1244 17.4 25.6345 16.7701 25.6345H11.4525C10.8224 25.6345 10.3125 25.1244 10.3125 24.4945V19.1844C10.3125 18.5546 10.8224 18.0444 11.4525 18.0444H16.7701C17.4 18.0444 17.9101 18.5546 17.9101 19.1844Z" fill="#5CBEFF"/>
<path d="M17.911 19.1843V24.4944C17.911 25.1243 17.4009 25.6344 16.771 25.6344H11.4534C11.0634 25.6344 10.726 25.4392 10.5234 25.147L17.5135 18.3296C17.7609 18.5317 17.911 18.8394 17.911 19.1843Z" fill="#079CFF"/>
<path d="M17.9099 9.98962V15.2997C17.9099 15.9296 17.4 16.4397 16.7699 16.4397H11.4525C10.8224 16.4397 10.3125 15.9296 10.3125 15.2997V9.98962C10.3125 9.35974 10.8224 8.84961 11.4525 8.84961H16.7699C17.4 8.84961 17.9099 9.35974 17.9099 9.98962Z" fill="#5CBEFF"/>
<path d="M17.911 9.99048V15.3005C17.911 15.9304 17.4009 16.4406 16.771 16.4406H11.4534C11.0634 16.4406 10.726 16.2454 10.5234 15.9531L17.5135 9.13574C17.7609 9.33789 17.911 9.64551 17.911 9.99048Z" fill="#079CFF"/>
<path d="M9.84375 36.5181C9.84375 39.2363 7.64015 41.4399 4.92188 41.4399C2.2036 41.4399 0 39.2363 0 36.5181C0 33.7998 2.2036 27.8462 4.92188 27.8462C7.64015 27.8462 9.84375 33.7998 9.84375 36.5181Z" fill="#4CC66E"/>
<path d="M9.84363 36.5197C9.84363 39.2347 7.63867 41.4397 4.92358 41.4397C4.07617 41.4397 3.27362 41.2222 2.57617 40.8472C2.76367 40.8699 2.95117 40.8772 3.13867 40.8772C5.86108 40.8772 8.06604 38.6722 8.06604 35.9572C8.06604 33.7595 6.6261 29.4397 4.63116 27.8723C4.72858 27.8573 4.82617 27.8496 4.92358 27.8496C7.63867 27.8496 9.84363 33.7972 9.84363 36.5197Z" fill="#14A142"/>
<path d="M4.92188 46.9877C4.50769 46.9877 4.17188 46.6519 4.17188 46.2377V34.6431C4.17188 34.2289 4.50769 33.8931 4.92188 33.8931C5.33606 33.8931 5.67188 34.2289 5.67188 34.6431V46.2377C5.67188 46.6519 5.33606 46.9877 4.92188 46.9877Z" fill="#14A142"/>
<path d="M48 36.5181C48 39.2363 45.7964 41.4399 43.0781 41.4399C40.3598 41.4399 38.1562 39.2363 38.1562 36.5181C38.1562 33.7998 40.3598 27.8462 43.0781 27.8462C45.7964 27.8462 48 33.7998 48 36.5181Z" fill="#4CC66E"/>
<path d="M47.9999 36.5197C47.9999 39.2347 45.7949 41.4397 43.0798 41.4397C42.2324 41.4397 41.4299 41.2222 40.7324 40.8472C40.9199 40.8699 41.1074 40.8772 41.2949 40.8772C44.0173 40.8772 46.2223 38.6722 46.2223 35.9572C46.2223 33.7595 44.7823 29.4397 42.7874 27.8723C42.8848 27.8573 42.9824 27.8496 43.0798 27.8496C45.7949 27.8496 47.9999 33.7972 47.9999 36.5197Z" fill="#14A142"/>
<path d="M43.0781 46.9877C42.6639 46.9877 42.3281 46.6519 42.3281 46.2377V34.6431C42.3281 34.2289 42.6639 33.8931 43.0781 33.8931C43.4923 33.8931 43.8281 34.2289 43.8281 34.6431V46.2377C43.8281 46.6519 43.4923 46.9877 43.0781 46.9877Z" fill="#14A142"/>
<path d="M48 46.47C48 46.8973 47.8275 47.2723 47.5499 47.5499C47.2723 47.8275 46.8973 48 46.47 48H1.53003C0.682434 48 0 47.3174 0 46.47C0 46.0422 0.172485 45.6672 0.44989 45.39C0.727478 45.1124 1.10248 44.9399 1.53003 44.9399H46.47C47.3174 44.9399 48 45.6226 48 46.47Z" fill="#435E88"/>
<path d="M48.0007 46.47C48.0007 46.8973 47.8282 47.2723 47.5507 47.5499C47.2731 47.8275 46.8981 48 46.4707 48H38.7832C39.2106 48 39.5856 47.8275 39.8632 47.5499C40.1407 47.2723 40.3132 46.8973 40.3132 46.47C40.3132 45.6226 39.6306 44.9399 38.7832 44.9399H46.4707C47.3181 44.9399 48.0007 45.6226 48.0007 46.47Z" fill="#33527D"/>
</svg>
