<svg width="50" height="34" viewBox="0 0 50 34" fill="none" xmlns="http://www.w3.org/2000/svg">
<rect width="50" height="34" fill="#F5F5F5"/>
<path d="M-17922 -1012C-17922 -1013.1 -17921.1 -1014 -17920 -1014H10219C10220.1 -1014 10221 -1013.1 10221 -1012V2782C10221 2783.1 10220.1 2784 10219 2784H-17920C-17921.1 2784 -17922 2783.1 -17922 2782V-1012Z" fill="#E5E5E5"/>
<path d="M-17920 -1013H10219V-1015H-17920V-1013ZM10220 -1012V2782H10222V-1012H10220ZM10219 2783H-17920V2785H10219V2783ZM-17921 2782V-1012H-17923V2782H-17921ZM-17920 2783C-17920.6 2783 -17921 2782.55 -17921 2782H-17923C-17923 2783.66 -17921.7 2785 -17920 2785V2783ZM10220 2782C10220 2782.55 10219.6 2783 10219 2783V2785C10220.7 2785 10222 2783.66 10222 2782H10220ZM10219 -1013C10219.6 -1013 10220 -1012.55 10220 -1012H10222C10222 -1013.66 10220.7 -1015 10219 -1015V-1013ZM-17920 -1015C-17921.7 -1015 -17923 -1013.66 -17923 -1012H-17921C-17921 -1012.55 -17920.6 -1013 -17920 -1013V-1015Z" fill="black" fill-opacity="0.1"/>
<rect x="-506" y="-184" width="1150" height="380" fill="white"/>
<rect opacity="0.3" x="-20.5" y="-23.5" width="179" height="79" rx="4.5" fill="white" stroke="#073127"/>
<path d="M25.0007 22.3333C28.6774 22.3333 31.6673 19.3434 31.6673 15.6667C31.6673 11.9899 28.6774 9 25.0007 9C21.3247 9 18.334 11.9899 18.334 15.6667C18.334 19.3434 21.3247 22.3333 25.0007 22.3333Z" fill="#FFE082"/>
<path d="M29.4199 23.606C28.9772 23.3293 28.4336 23.2756 27.9421 23.4579C26.0475 24.1773 23.9536 24.1773 22.0558 23.4579C21.5692 23.2756 21.0223 23.3277 20.5788 23.606C18.1292 25.1457 16.666 27.7857 16.666 30.6666V32.3332C16.666 33.2544 17.4123 33.9999 18.3327 33.9999H31.666C32.5872 33.9999 33.3327 33.2544 33.3327 32.3332V30.6666C33.3327 27.7857 31.8695 25.1457 29.4199 23.606Z" fill="#42A5F5"/>
<path d="M8.33268 13.9998C12.0086 13.9998 14.9993 11.0099 14.9993 7.33317C14.9993 3.65641 12.0086 0.666504 8.33268 0.666504C4.65674 0.666504 1.66602 3.65641 1.66602 7.33317C1.66602 11.0099 4.65674 13.9998 8.33268 13.9998Z" fill="#FFE082"/>
<path d="M16.6667 22.3331C16.6667 19.4522 15.2035 16.8122 12.7539 15.2725C12.3112 14.9942 11.7643 14.9421 11.2769 15.1244C9.37907 15.8438 7.2876 15.8438 5.38981 15.1244C4.90397 14.9421 4.35547 14.9942 3.91276 15.2725C1.46322 16.8122 0 19.4522 0 22.3331V23.9997C0 24.9209 0.746257 25.6664 1.66667 25.6664H15C15.9204 25.6664 16.6667 24.9209 16.6667 23.9997V22.3331Z" fill="#42A5F5"/>
<path d="M41.6667 13.9998C45.3434 13.9998 48.3333 11.0099 48.3333 7.33317C48.3333 3.65641 45.3434 0.666504 41.6667 0.666504C37.9899 0.666504 35 3.65641 35 7.33317C35 11.0099 37.9899 13.9998 41.6667 13.9998Z" fill="#FFE082"/>
<path d="M46.0879 15.2728C45.6452 14.9961 45.1016 14.944 44.61 15.1247C42.7155 15.8441 40.6191 15.8441 38.7246 15.1247C38.2331 14.944 37.6911 14.9961 37.2467 15.2728C34.7972 16.8125 33.334 19.4525 33.334 22.3334V24C33.334 24.9212 34.0794 25.6667 35.0007 25.6667H48.334C49.2552 25.6667 50.0007 24.9212 50.0007 24V22.3334C50.0007 19.4525 48.5374 16.8125 46.0879 15.2728Z" fill="#42A5F5"/>
<g opacity="0.1">
<path d="M48.3327 7.33317C48.3327 11.0164 45.3493 13.9998 41.666 13.9998V0.666504C45.3493 0.666504 48.3327 3.6499 48.3327 7.33317Z" fill="black"/>
<path d="M49.9993 22.3333V24C49.9993 24.9163 49.249 25.6667 48.3327 25.6667H41.666V15.6667C42.6654 15.6667 43.6663 15.4827 44.6152 15.1165C45.0986 14.9505 45.6488 14.9993 46.0833 15.2663C48.5329 16.8174 49.9993 19.4492 49.9993 22.3333Z" fill="black"/>
</g>
<g opacity="0.1">
<path d="M31.6667 15.6667C31.6667 19.3499 28.6833 22.3333 25 22.3333V9C28.6833 9 31.6667 11.9834 31.6667 15.6667Z" fill="black"/>
<path d="M33.3333 30.6668V32.3335C33.3333 33.2498 32.583 34.0002 31.6667 34.0002H25V24.0002C25.9993 24.0002 27.0003 23.8162 27.9492 23.45C28.4326 23.284 28.9827 23.3328 29.4173 23.5998C31.8669 25.1509 33.3333 27.7827 33.3333 30.6668Z" fill="black"/>
</g>
<g opacity="0.1">
<path d="M15.0007 7.33317C15.0007 11.0164 12.0173 13.9998 8.33398 13.9998V0.666504C12.0173 0.666504 15.0007 3.6499 15.0007 7.33317Z" fill="black"/>
<path d="M16.6673 22.3333V24C16.6673 24.9163 15.917 25.6667 15.0007 25.6667H8.33398V15.6667C9.33333 15.6667 10.3343 15.4827 11.2832 15.1165C11.7666 14.9505 12.3167 14.9993 12.7513 15.2663C15.2008 16.8174 16.6673 19.4492 16.6673 22.3333Z" fill="black"/>
</g>
</svg>
