<svg width="35" height="48" viewBox="0 0 35 48" fill="none" xmlns="http://www.w3.org/2000/svg">
<rect width="35" height="48" fill="#F5F5F5"/>
<path d="M-17728 -1004C-17728 -1005.1 -17727.1 -1006 -17726 -1006H10413C10414.1 -1006 10415 -1005.1 10415 -1004V2790C10415 2791.1 10414.1 2792 10413 2792H-17726C-17727.1 2792 -17728 2791.1 -17728 2790V-1004Z" fill="#E5E5E5"/>
<path d="M-17726 -1005H10413V-1007H-17726V-1005ZM10414 -1004V2790H10416V-1004H10414ZM10413 2791H-17726V2793H10413V2791ZM-17727 2790V-1004H-17729V2790H-17727ZM-17726 2791C-17726.6 2791 -17727 2790.55 -17727 2790H-17729C-17729 2791.66 -17727.7 2793 -17726 2793V2791ZM10414 2790C10414 2790.55 10413.6 2791 10413 2791V2793C10414.7 2793 10416 2791.66 10416 2790H10414ZM10413 -1005C10413.6 -1005 10414 -1004.55 10414 -1004H10416C10416 -1005.66 10414.7 -1007 10413 -1007V-1005ZM-17726 -1007C-17727.7 -1007 -17729 -1005.66 -17729 -1004H-17727C-17727 -1004.55 -17726.6 -1005 -17726 -1005V-1007Z" fill="black" fill-opacity="0.1"/>
<rect x="-312" y="-176" width="1150" height="380" fill="white"/>
<rect opacity="0.3" x="-36.5" y="-15.5" width="179" height="79" rx="4.5" fill="white" stroke="#073127"/>
<path d="M6.85742 24H27.4289V48H6.85742V24Z" fill="#FAB400"/>
<path d="M0 37.7144H6.85714V48.0001H0V37.7144Z" fill="#F0C8A0"/>
<path d="M27.4277 37.7144H34.2849V48.0001H27.4277V37.7144Z" fill="#F0C8A0"/>
<path d="M6.85714 37.7143V24C3.07029 24 0 27.0703 0 30.8571V37.7143H6.85714Z" fill="#DC9600"/>
<path d="M34.2849 37.7143V30.8571C34.2849 27.0703 31.2146 24 27.4277 24V37.7143H34.2849Z" fill="#DC9600"/>
<path d="M22.2857 24C22.2857 26.8406 19.9834 29.1429 17.1429 29.1429C14.3023 29.1429 12 26.8406 12 24H22.2857Z" fill="#F0F0F0"/>
<path d="M13.7148 18.8574V24.0003C13.7148 25.8937 15.25 27.4288 17.1434 27.4288C19.0368 27.4288 20.572 25.8937 20.572 24.0003V18.8574H13.7148Z" fill="#D2AA82"/>
<path d="M20.5723 1.71436H13.7151C10.8746 1.71436 8.57227 4.01664 8.57227 6.85721V12.0001H25.7151V6.85721C25.7151 4.01664 23.4128 1.71436 20.5723 1.71436Z" fill="#0A5078"/>
<path d="M18.858 22.286H15.4294C11.6426 22.286 8.57227 19.2157 8.57227 15.4288V12.0003C9.51941 12.0003 10.2866 11.2331 10.2866 10.286V6.85742H24.0008V10.286C24.0008 11.2331 24.768 12.0003 25.7151 12.0003V15.4288C25.7151 19.2157 22.6448 22.286 18.858 22.286Z" fill="#F0C8A0"/>
<path d="M8.57171 15.4285V10.2856C7.62456 10.2856 6.85742 11.0528 6.85742 11.9999V13.7142C6.85742 14.6614 7.62456 15.4285 8.57171 15.4285Z" fill="#D2AA82"/>
<path d="M25.7148 15.4285V10.2856C26.662 10.2856 27.4291 11.0528 27.4291 11.9999V13.7142C27.4291 14.6614 26.662 15.4285 25.7148 15.4285Z" fill="#D2AA82"/>
<path d="M0 37.7144H6.85714V38.5715H0V37.7144Z" fill="#D2AA82"/>
<path d="M27.4277 37.7144H34.2849V38.5715H27.4277V37.7144Z" fill="#D2AA82"/>
<path d="M22.2852 6.85714H10.2852V3.42857C10.2852 1.53514 11.8203 0 13.7137 0H22.2852C24.1786 0 25.7137 1.53514 25.7137 3.42857C25.7137 5.322 24.1786 6.85714 22.2852 6.85714Z" fill="#0A5078"/>
<path d="M0 36H6.85714V37.7143H0V36Z" fill="#F0F0F0"/>
<path d="M27.4277 36H34.2849V37.7143H27.4277V36Z" fill="#F0F0F0"/>
</svg>
