<?xml version="1.0" encoding="UTF-8"?><svg id="uuid-2a8749bc-9f6f-4e8c-9f23-8a5cf541959a" xmlns="http://www.w3.org/2000/svg" xmlns:xlink="http://www.w3.org/1999/xlink" viewBox="0 0 375.69 77.3"><defs><clipPath id="uuid-324d9372-2df7-4da0-ad3e-b191a086ad00"><path d="M16.5,35.4h4.2L45.8,7.6l-.7-.6c-1-.8-2.3-.6-3,.2l-25.7,28.1h0l.1.1Z" fill="#ab1331"/></clipPath><clipPath id="uuid-fad649fd-4d86-4a2c-aed5-69c4ea23e697"><polygon points="62.6 21.38 60.38 23.7 43.75 9.88 45.76 7.56 62.6 21.38" fill="#ab1331"/></clipPath><clipPath id="uuid-0b039c2e-fedb-4d91-9693-09ace34a4246"><path d="M118.56,34.5c.1.2.2.4.1.6,0,.2-.2.3-.4.3h-5.5L81.56,3.3l2.6-2.5C84.96,0,85.66.5,86.56,1.4h0c0,.1.1.3.1.3l.2.2.2.2.2.3.3.3.3.3.3.4.4.4.4.4.4.4.5.5.5.5.5.5.5.6.6.6.6.6.6.6.6.6.6.6.6.7.7.7.7.7.7.7.7.7.7.7.7.7.7.7.7.7.7.7.7.7.7.7.7.7.7.7.7.7.7.7.7.7.7.7.7.7.7.7.7.7.7.7.6.7.6.6.6.6.6.6.6.6.6.6.5.5.5.5.5.5.5.5.4.5.4.4.4.4.3.4.3.3.3.3.3.3.2.2.2.2.2.2h.1v.2h0l.2.3Z" fill="#ab1331"/></clipPath><clipPath id="uuid-260bd2b0-dc1c-4793-8a2d-b8ede28e5c00"><polygon points="60.3 23.6 62.7 25.8 83.8 5.5 81.6 3.3 60.3 23.6" fill="none"/></clipPath><linearGradient id="uuid-beeba97e-acbd-4a2b-9d94-239516108295" x1="110.3" y1="75.13" x2="110.3" y2="60.13" gradientUnits="userSpaceOnUse"><stop offset="0" stop-color="#ab1331"/><stop offset="1" stop-color="#900621"/></linearGradient></defs><g isolation="isolate"><g isolation="isolate"><g isolation="isolate"><path d="M130.44,24.75h1.5v10.39h13.26v-10.39h1.5v22.85h-1.5v-11.09h-13.26v11.09h-1.5v-22.85Z" fill="#900621"/><path d="M151.63,39.65c0-2.55.65-4.59,1.96-6.13s3.04-2.3,5.2-2.3,3.91.76,5.19,2.29c1.28,1.53,1.92,3.57,1.92,6.13s-.66,4.52-1.97,6.06c-1.31,1.54-3.02,2.32-5.14,2.32s-3.91-.76-5.21-2.28c-1.3-1.52-1.95-3.55-1.95-6.09ZM164.47,39.65c0-2.2-.51-3.94-1.54-5.24s-2.4-1.94-4.14-1.94-3.15.64-4.18,1.93c-1.03,1.29-1.55,3.04-1.55,5.25s.51,3.92,1.53,5.2c1.02,1.28,2.42,1.91,4.2,1.91s3.14-.63,4.15-1.91c1.01-1.27,1.52-3,1.52-5.2Z" fill="#900621"/><path d="M171.9,31.64l.27,2.24h.03c.75-.89,1.52-1.55,2.31-1.99s1.74-.66,2.87-.66c1.36,0,2.46.31,3.3.94.84.63,1.41,1.4,1.71,2.31h.07c.77-1.1,1.59-1.92,2.45-2.45.86-.53,1.87-.79,3.02-.79,1.75,0,3.09.5,4.01,1.51.92,1.01,1.38,2.42,1.38,4.25v10.61h-1.37v-10.29c0-3.22-1.37-4.84-4.12-4.84-1.11,0-2.05.3-2.85.9-.79.6-1.54,1.46-2.23,2.57v11.66h-1.37v-10.78c0-1.34-.36-2.4-1.09-3.18-.72-.77-1.75-1.16-3.08-1.16-1.03,0-1.93.25-2.72.74-.79.49-1.56,1.2-2.32,2.14v12.25h-1.37v-15.96h1.09Z" fill="#900621"/><path d="M198.05,39.45c0-1.66.29-3.12.87-4.36.58-1.24,1.38-2.2,2.39-2.86,1.01-.67,2.15-1,3.42-1,1.87,0,3.36.61,4.48,1.84,1.12,1.23,1.67,3.15,1.67,5.79v.6h-11.4c0,2.52.55,4.37,1.66,5.55,1.1,1.18,2.66,1.77,4.67,1.77,1.71,0,3.21-.3,4.51-.91v1.28c-1.06.59-2.56.89-4.51.89-2.48,0-4.4-.75-5.74-2.24-1.34-1.49-2.02-3.61-2.02-6.34ZM204.73,32.44c-1.41,0-2.6.54-3.57,1.61-.97,1.08-1.52,2.46-1.64,4.16h9.96c-.03-1.89-.45-3.33-1.25-4.31-.8-.98-1.96-1.47-3.5-1.47Z" fill="#900621"/></g></g><g isolation="isolate"><g isolation="isolate"><path d="M219.42,47.6v-20.76h8.82c2.22,0,3.83.19,4.84.56,1.01.37,1.81,1.04,2.41,1.99.6.95.91,2.04.91,3.27,0,1.56-.46,2.84-1.37,3.86s-2.29,1.65-4.11,1.92c.91.53,1.65,1.11,2.24,1.74.59.63,1.39,1.76,2.39,3.37l2.54,4.05h-5.01l-3.03-4.52c-1.08-1.61-1.81-2.63-2.21-3.05s-.82-.71-1.26-.86c-.44-.16-1.15-.23-2.11-.23h-.85v8.67h-4.19ZM223.62,35.62h3.1c2.01,0,3.27-.08,3.77-.25.5-.17.89-.46,1.17-.88s.42-.93.42-1.56c0-.7-.19-1.26-.56-1.69-.37-.43-.9-.7-1.58-.81-.34-.05-1.36-.07-3.06-.07h-3.27v5.27Z" fill="#ab1331"/><path d="M243.3,37.15l-3.61-.65c.41-1.45,1.11-2.53,2.1-3.23.99-.7,2.46-1.05,4.42-1.05,1.78,0,3.1.21,3.96.63.87.42,1.48.95,1.83,1.6s.53,1.83.53,3.56l-.04,4.64c0,1.32.06,2.3.19,2.92s.37,1.3.71,2.02h-3.94c-.1-.26-.23-.66-.38-1.18-.07-.24-.11-.39-.14-.47-.68.66-1.41,1.16-2.18,1.49-.77.33-1.6.5-2.48.5-1.55,0-2.77-.42-3.66-1.26-.89-.84-1.34-1.9-1.34-3.19,0-.85.2-1.61.61-2.27.41-.67.97-1.18,1.71-1.53.73-.35,1.79-.66,3.17-.93,1.86-.35,3.15-.67,3.87-.98v-.4c0-.77-.19-1.31-.57-1.64-.38-.33-1.09-.49-2.14-.49-.71,0-1.26.14-1.66.42s-.72.77-.96,1.47ZM248.62,40.38c-.51.17-1.32.37-2.42.61-1.1.24-1.83.47-2.17.69-.52.37-.78.83-.78,1.4s.21,1.04.62,1.45c.42.41.94.61,1.59.61.72,0,1.4-.24,2.05-.71.48-.36.8-.8.95-1.32.1-.34.16-.99.16-1.94v-.79Z" fill="#ab1331"/><path d="M263.35,32.56v3.17h-2.72v6.06c0,1.23.03,1.94.08,2.15.05.2.17.37.35.5.18.13.41.2.67.2.37,0,.9-.13,1.6-.38l.34,3.09c-.93.4-1.97.59-3.14.59-.72,0-1.36-.12-1.94-.36-.58-.24-1-.55-1.27-.93-.27-.38-.46-.9-.56-1.55-.09-.46-.13-1.4-.13-2.8v-6.56h-1.83v-3.17h1.83v-2.99l3.99-2.32v5.31h2.72Z" fill="#ab1331"/><path d="M274.82,42.81l3.96.67c-.51,1.45-1.31,2.56-2.41,3.32-1.1.76-2.48,1.14-4.13,1.14-2.62,0-4.55-.85-5.81-2.56-.99-1.37-1.49-3.1-1.49-5.18,0-2.49.65-4.44,1.96-5.85s2.95-2.12,4.94-2.12c2.24,0,4,.74,5.3,2.22s1.91,3.74,1.85,6.79h-9.97c.03,1.18.35,2.1.96,2.75.61.66,1.38.98,2.29.98.62,0,1.15-.17,1.57-.51s.75-.89.96-1.64ZM275.05,38.79c-.03-1.15-.33-2.03-.89-2.63s-1.26-.9-2.07-.9c-.87,0-1.59.32-2.15.95s-.84,1.49-.83,2.58h5.95Z" fill="#ab1331"/><path d="M280.84,43.31l3.99-.61c.17.77.52,1.36,1.03,1.76s1.25.6,2.18.6c1.03,0,1.8-.19,2.32-.57.35-.26.52-.62.52-1.06,0-.3-.09-.55-.28-.75-.2-.19-.64-.36-1.33-.52-3.21-.71-5.24-1.35-6.1-1.94-1.19-.81-1.78-1.94-1.78-3.38,0-1.3.51-2.4,1.54-3.29,1.03-.89,2.62-1.33,4.79-1.33s3.59.33,4.59,1c1,.67,1.69,1.66,2.07,2.97l-3.75.69c-.16-.58-.46-1.03-.91-1.35-.45-.31-1.09-.47-1.92-.47-1.05,0-1.8.15-2.25.44-.3.21-.45.48-.45.81,0,.28.13.52.4.72.36.26,1.6.64,3.72,1.12s3.6,1.07,4.44,1.77c.83.71,1.25,1.69,1.25,2.96,0,1.38-.58,2.56-1.73,3.55-1.15.99-2.86,1.49-5.11,1.49-2.05,0-3.67-.42-4.86-1.25-1.2-.83-1.98-1.96-2.34-3.38Z" fill="#ab1331"/><path d="M303.85,47.6v-8.74l-7.6-12.02h4.91l4.89,8.21,4.79-8.21h4.83l-7.63,12.05v8.71h-4.18Z" fill="#ab1331"/><path d="M319.08,37.15l-3.61-.65c.41-1.45,1.11-2.53,2.1-3.23.99-.7,2.46-1.05,4.42-1.05,1.78,0,3.1.21,3.96.63.87.42,1.48.95,1.83,1.6s.53,1.83.53,3.56l-.04,4.64c0,1.32.06,2.3.19,2.92s.37,1.3.71,2.02h-3.94c-.1-.26-.23-.66-.38-1.18-.07-.24-.11-.39-.14-.47-.68.66-1.41,1.16-2.18,1.49-.77.33-1.6.5-2.48.5-1.55,0-2.77-.42-3.66-1.26-.89-.84-1.34-1.9-1.34-3.19,0-.85.2-1.61.61-2.27.41-.67.97-1.18,1.71-1.53.73-.35,1.79-.66,3.17-.93,1.86-.35,3.15-.67,3.87-.98v-.4c0-.77-.19-1.31-.57-1.64-.38-.33-1.09-.49-2.14-.49-.71,0-1.26.14-1.66.42s-.72.77-.96,1.47ZM324.41,40.38c-.51.17-1.32.37-2.42.61-1.1.24-1.83.47-2.17.69-.52.37-.78.83-.78,1.4s.21,1.04.62,1.45c.42.41.94.61,1.59.61.72,0,1.4-.24,2.05-.71.48-.36.8-.8.95-1.32.1-.34.16-.99.16-1.94v-.79Z" fill="#ab1331"/><path d="M336.05,47.6h-3.98v-15.04h3.7v2.14c.63-1.01,1.2-1.67,1.71-2,.51-.32,1.08-.48,1.72-.48.91,0,1.78.25,2.62.75l-1.23,3.47c-.67-.43-1.29-.65-1.87-.65s-1.03.15-1.42.46-.69.86-.91,1.66c-.22.8-.33,2.48-.33,5.04v4.64Z" fill="#ab1331"/><path d="M357.32,47.6h-3.7v-2.21c-.61.86-1.34,1.5-2.17,1.92s-1.68.63-2.53.63c-1.73,0-3.21-.7-4.44-2.09s-1.85-3.33-1.85-5.83.6-4.49,1.8-5.81,2.71-1.99,4.55-1.99c1.68,0,3.13.7,4.36,2.1v-7.48h3.98v20.76ZM346.7,39.76c0,1.6.22,2.77.67,3.48.64,1.04,1.54,1.56,2.69,1.56.92,0,1.69-.39,2.34-1.17.64-.78.96-1.94.96-3.49,0-1.73-.31-2.97-.93-3.73s-1.42-1.14-2.39-1.14-1.73.38-2.37,1.13c-.64.75-.96,1.87-.96,3.36Z" fill="#ab1331"/></g></g></g><g isolation="isolate"><g isolation="isolate"><g isolation="isolate"><path d="M228.78,59.16l-1.38,2.61h-.88l1.57-2.61h.69ZM230.56,59.16l-1.4,2.61h-.86l1.58-2.61h.69Z" fill="#3d3d3d"/><path d="M236.27,67.13c-.98.48-1.99.71-3.02.71-1.2,0-2.06-.39-2.58-1.16s-.6-1.8-.23-3.07c.37-1.3,1.09-2.37,2.15-3.2s2.22-1.25,3.48-1.25c.91,0,1.64.15,2.17.45l-.31,1.09c-.56-.43-1.3-.64-2.23-.64s-1.81.32-2.59.97-1.33,1.49-1.62,2.52c-.3,1.06-.26,1.9.12,2.5.38.61,1.05.91,2.01.91.66,0,1.26-.13,1.82-.39l.68-2.36h-1.84l.26-.89h2.82l-1.09,3.81Z" fill="#3d3d3d"/><path d="M243.54,64.94h-4.24c-.18.67-.14,1.18.1,1.55.24.36.66.54,1.26.54.68,0,1.36-.22,2.05-.67l-.26.9c-.64.38-1.39.57-2.26.57s-1.44-.27-1.76-.82-.35-1.31-.07-2.3c.27-.93.75-1.69,1.45-2.28.7-.59,1.44-.88,2.22-.88s1.32.25,1.6.76.3,1.21.04,2.12l-.14.5ZM242.79,64.13c.16-.55.15-.99-.03-1.29-.17-.31-.5-.46-.97-.46s-.88.16-1.29.49c-.41.32-.73.75-.95,1.27h3.24Z" fill="#3d3d3d"/><path d="M247,67.64c-.26.12-.58.19-.95.19-1.05,0-1.41-.59-1.07-1.76l1.02-3.55h-1.03l.24-.82h1.03l.42-1.46,1.05-.31-.51,1.78h1.51l-.24.82h-1.51l-.97,3.38c-.12.4-.13.69-.04.86.09.17.29.26.61.26.24,0,.47-.07.68-.2l-.24.82Z" fill="#3d3d3d"/><path d="M251.39,67.36l.33-1.16c.1.12.23.22.39.32.16.09.33.17.52.24.19.06.38.11.58.15.2.04.38.05.56.05.61,0,1.09-.11,1.45-.34s.61-.55.73-.97c.06-.23.07-.42.02-.59-.05-.17-.15-.32-.28-.46-.14-.14-.31-.27-.51-.4-.2-.13-.42-.26-.66-.4-.25-.15-.48-.3-.69-.45s-.38-.32-.52-.5-.22-.39-.26-.62-.02-.5.07-.82c.11-.38.29-.72.54-1,.25-.28.54-.52.86-.7s.68-.32,1.05-.41c.38-.09.75-.13,1.11-.13.83,0,1.4.1,1.72.3l-.32,1.11c-.4-.34-.98-.52-1.76-.52-.21,0-.44.02-.66.07s-.44.12-.64.22-.37.23-.52.39-.26.36-.33.59c-.06.21-.08.4-.04.56.04.16.11.3.23.43s.27.25.46.38c.19.12.41.25.66.4.26.15.5.3.72.47s.41.35.55.54c.15.2.24.42.29.66s.03.52-.06.83c-.12.41-.3.76-.54,1.05-.25.29-.53.52-.86.7s-.68.31-1.06.39c-.38.08-.77.12-1.17.12-.13,0-.29-.01-.48-.03-.19-.02-.38-.05-.57-.09s-.37-.09-.53-.15-.29-.13-.38-.2Z" fill="#3d3d3d"/><path d="M263.55,64.94h-4.24c-.18.67-.14,1.18.1,1.55.24.36.66.54,1.26.54.68,0,1.36-.22,2.05-.67l-.26.9c-.64.38-1.39.57-2.26.57s-1.44-.27-1.76-.82-.35-1.31-.07-2.3c.27-.93.75-1.69,1.45-2.28.7-.59,1.44-.88,2.22-.88s1.32.25,1.6.76.3,1.21.04,2.12l-.14.5ZM262.8,64.13c.16-.55.15-.99-.03-1.29-.17-.31-.5-.46-.97-.46s-.88.16-1.29.49c-.41.32-.73.75-.95,1.27h3.24Z" fill="#3d3d3d"/><path d="M267.01,67.64c-.26.12-.58.19-.95.19-1.05,0-1.41-.59-1.07-1.76l1.02-3.55h-1.03l.24-.82h1.03l.42-1.46,1.05-.31-.51,1.78h1.51l-.24.82h-1.51l-.97,3.38c-.12.4-.13.69-.04.86.09.17.29.26.61.26.24,0,.47-.07.68-.2l-.24.82Z" fill="#3d3d3d"/><path d="M276.83,59.66c-.16-.11-.35-.16-.59-.16-.67,0-1.13.42-1.37,1.27l-.27.93h1.41l-.24.82h-1.41l-1.48,5.18h-.96l1.48-5.18h-1.03l.24-.82h1.03l.28-.97c.18-.63.5-1.13.97-1.49s.97-.55,1.52-.55c.29,0,.51.04.67.11l-.25.87Z" fill="#3d3d3d"/><path d="M277.78,67.84c-.89,0-1.51-.28-1.88-.84-.37-.56-.42-1.3-.15-2.23.29-1.01.79-1.79,1.5-2.36s1.54-.85,2.48-.85,1.51.28,1.86.83.38,1.31.1,2.29c-.27.96-.76,1.72-1.47,2.3s-1.51.86-2.42.86ZM279.42,62.37c-.62,0-1.17.21-1.65.63-.48.42-.83,1-1.04,1.74-.2.71-.18,1.27.06,1.68.25.41.67.62,1.28.62s1.16-.2,1.61-.6.78-.97.99-1.72c.21-.75.21-1.33,0-1.73-.22-.41-.64-.61-1.26-.61Z" fill="#3d3d3d"/><path d="M286.92,62.67c-.13-.13-.35-.19-.67-.19-.41,0-.81.19-1.2.58-.39.39-.67.91-.87,1.58l-.88,3.06h-.96l1.72-6h.96l-.35,1.24h.02c.26-.42.56-.75.91-.99.35-.24.7-.35,1.04-.35.25,0,.43.03.55.08l-.29,1Z" fill="#3d3d3d"/><path d="M297.81,59.3l-4.29,5.3-.89,3.11h-.98l.88-3.08-1.18-5.32h1.12l.79,3.8s.03.22.06.52h.02c.08-.13.2-.3.37-.52l3.06-3.8h1.04Z" fill="#3d3d3d"/><path d="M298.91,67.84c-.89,0-1.51-.28-1.88-.84-.37-.56-.42-1.3-.15-2.23.29-1.01.79-1.79,1.5-2.36s1.54-.85,2.48-.85,1.51.28,1.86.83.38,1.31.1,2.29c-.27.96-.76,1.72-1.47,2.3s-1.51.86-2.42.86ZM300.55,62.37c-.62,0-1.17.21-1.65.63-.48.42-.83,1-1.04,1.74-.2.71-.18,1.27.06,1.68.25.41.67.62,1.28.62s1.16-.2,1.61-.6c.45-.4.78-.97.99-1.72.21-.75.21-1.33,0-1.73-.22-.41-.64-.61-1.26-.61Z" fill="#3d3d3d"/><path d="M308.32,67.7h-.96l.27-.95h-.02c-.61.73-1.33,1.09-2.16,1.09-1.43,0-1.9-.85-1.41-2.55l1.03-3.59h.96l-.98,3.43c-.36,1.27-.06,1.9.91,1.9.47,0,.9-.17,1.31-.52.4-.35.68-.8.84-1.36l.99-3.46h.96l-1.72,6Z" fill="#3d3d3d"/><path d="M314.83,62.67c-.13-.13-.35-.19-.67-.19-.41,0-.81.19-1.2.58-.39.39-.67.91-.87,1.58l-.88,3.06h-.96l1.72-6h.96l-.35,1.24h.02c.26-.42.56-.75.91-.99.35-.24.7-.35,1.04-.35.25,0,.43.03.55.08l-.29,1Z" fill="#3d3d3d"/><path d="M326.42,67.7h-.98l1.62-5.64c.13-.45.31-.99.55-1.63h-.02c-.2.38-.36.65-.49.81l-4.72,6.46h-.48l-1.03-6.41c-.03-.19-.03-.47,0-.86h-.02c-.07.34-.21.88-.43,1.65l-1.61,5.62h-.95l2.41-8.4h1.3l.9,5.86c.07.45.1.79.1,1.01h.04c.3-.46.53-.8.7-1.03l4.3-5.84h1.23l-2.41,8.4Z" fill="#3d3d3d"/><path d="M330.96,67.84c-.89,0-1.51-.28-1.88-.84-.37-.56-.42-1.3-.15-2.23.29-1.01.79-1.79,1.5-2.36s1.54-.85,2.48-.85,1.51.28,1.86.83.38,1.31.1,2.29c-.27.96-.76,1.72-1.47,2.3s-1.51.86-2.42.86ZM332.6,62.37c-.62,0-1.17.21-1.65.63-.48.42-.83,1-1.04,1.74-.2.71-.18,1.27.06,1.68.25.41.67.62,1.28.62s1.16-.2,1.61-.6.78-.97.99-1.72c.21-.75.21-1.33,0-1.73-.22-.41-.64-.61-1.26-.61Z" fill="#3d3d3d"/><path d="M340.1,62.67c-.13-.13-.35-.19-.67-.19-.41,0-.81.19-1.2.58-.39.39-.67.91-.87,1.58l-.88,3.06h-.96l1.72-6h.96l-.35,1.24h.02c.26-.42.56-.75.91-.99.35-.24.7-.35,1.04-.35.25,0,.43.03.55.08l-.29,1Z" fill="#3d3d3d"/><path d="M342.5,67.64c-.26.12-.58.19-.95.19-1.05,0-1.41-.59-1.07-1.76l1.02-3.55h-1.03l.24-.82h1.03l.42-1.46,1.05-.31-.51,1.78h1.51l-.24.82h-1.51l-.97,3.38c-.12.4-.13.69-.04.86.09.17.29.26.61.26.24,0,.47-.07.68-.2l-.24.82Z" fill="#3d3d3d"/><path d="M349.03,67.22c-.63,2.2-2,3.3-4.11,3.3-.74,0-1.35-.14-1.82-.42l.28-.96c.57.38,1.16.56,1.77.56,1.48,0,2.44-.79,2.89-2.36l.19-.66h-.02c-.68.77-1.47,1.15-2.39,1.15-.75,0-1.27-.27-1.57-.8-.3-.53-.32-1.25-.07-2.15.29-1.02.77-1.83,1.43-2.43.66-.6,1.42-.9,2.27-.9s1.31.32,1.52.97h.02l.24-.83h.96l-1.58,5.52ZM348.7,64.99l.25-.88c.14-.48.09-.88-.13-1.22-.23-.34-.58-.51-1.06-.51-.59,0-1.12.22-1.58.65s-.8,1.04-1.02,1.81c-.19.67-.18,1.2.02,1.6.21.4.58.6,1.11.6s1.03-.19,1.48-.57c.45-.38.76-.87.93-1.47Z" fill="#3d3d3d"/><path d="M355.13,67.7h-.96l.27-.94h-.02c-.62.72-1.34,1.08-2.16,1.08-.6,0-1.02-.16-1.27-.47s-.3-.74-.15-1.26c.32-1.12,1.17-1.77,2.54-1.96l1.87-.25c.29-1.02.03-1.53-.8-1.53-.72,0-1.45.25-2.17.74l.28-.98c.7-.38,1.43-.56,2.2-.56,1.41,0,1.9.75,1.47,2.24l-1.12,3.9ZM355.04,64.66l-1.5.2c-.46.06-.83.17-1.1.33-.27.16-.47.44-.58.84-.08.29-.05.53.11.72.16.19.41.28.76.28.48,0,.92-.17,1.32-.5s.68-.76.83-1.27l.17-.6Z" fill="#3d3d3d"/><path d="M362.2,67.22c-.63,2.2-2,3.3-4.11,3.3-.74,0-1.35-.14-1.82-.42l.28-.96c.57.38,1.16.56,1.77.56,1.48,0,2.44-.79,2.89-2.36l.19-.66h-.02c-.68.77-1.47,1.15-2.39,1.15-.75,0-1.27-.27-1.57-.8-.3-.53-.32-1.25-.07-2.15.29-1.02.77-1.83,1.43-2.43.66-.6,1.42-.9,2.27-.9s1.31.32,1.52.97h.02l.24-.83h.96l-1.58,5.52ZM361.88,64.99l.25-.88c.14-.48.09-.88-.13-1.22-.23-.34-.58-.51-1.06-.51-.59,0-1.12.22-1.58.65s-.8,1.04-1.02,1.81c-.19.67-.18,1.2.02,1.6.21.4.58.6,1.11.6s1.03-.19,1.48-.57c.45-.38.76-.87.93-1.47Z" fill="#3d3d3d"/><path d="M369.62,64.94h-4.24c-.18.67-.14,1.18.1,1.55.24.36.66.54,1.26.54.68,0,1.36-.22,2.05-.67l-.26.9c-.64.38-1.39.57-2.26.57s-1.44-.27-1.76-.82-.35-1.31-.07-2.3c.27-.93.75-1.69,1.45-2.28.7-.59,1.44-.88,2.22-.88s1.32.25,1.6.76c.28.51.3,1.21.04,2.12l-.14.5ZM368.87,64.13c.16-.55.15-.99-.03-1.29-.17-.31-.5-.46-.97-.46s-.88.16-1.29.49c-.41.32-.73.75-.95,1.27h3.24Z" fill="#3d3d3d"/><path d="M373.91,59.16l-1.57,2.61h-.69l1.4-2.61h.86ZM375.69,59.16l-1.57,2.61h-.69l1.38-2.61h.88Z" fill="#3d3d3d"/></g></g></g><path d="M16.5,35.4c1.1-1.2,2-2.3,2.9-3.3,4.5-4.9,9-9.8,13.5-14.6,2.7-3,5.5-6,8.2-8.9.3-.4.7-.8,1.1-1.1.7-.9,2-1.1,3-.4,0,0,.2.1.2.2,2.7,2.1,5.3,4.3,8,6.5s5.3,4.4,8,6.6c.9.8,1.4.8,2.3-.1,3.8-3.6,7.6-7.2,11.4-10.8,3-2.9,6-5.7,9-8.6.7-.7,1.2-.7,1.9,0,7.5,7.8,15.1,15.6,22.7,23.4l9.2,9.5c.2.2.3.3.5.5s.3.5.3.8c-.1.4-.5.2-.8.2h-5.1c-1.3,0-1.7.3-1.7,1.7v14.4c0,1.7-.3,2-1.9,2.4-8.1,1.8-16.3,3.3-24.5,4.5-5.9.9-11.8,1.5-17.7,2-7.8.6-15.6.8-23.4.5-5.6-.1-11.2-.6-16.7-1.3-1.5-.2-1.7-.6-1.7-2v-20.6c-.1-1.1-.5-1.5-1.6-1.5h-7.1Z" fill="#ffe1e1"/><path d="M16.5,35.4h4.2L45.8,7.6l-.7-.6c-1-.8-2.3-.6-3,.2l-25.7,28.1h0l.1.1Z" fill="#ab1331"/><g clip-path="url(#uuid-324d9372-2df7-4da0-ad3e-b191a086ad00)"><polygon points="22.69 35.4 45.8 10.31 45.8 35.4 22.69 35.4" fill="#ab1331"/><polygon points="22.61 35.4 45.8 10.22 45.8 10.31 22.69 35.4 22.61 35.4" fill="#ab1331"/><polygon points="22.53 35.4 45.8 10.13 45.8 10.22 22.61 35.4 22.53 35.4" fill="#ab1331"/><polygon points="22.45 35.4 45.8 10.05 45.8 10.13 22.53 35.4 22.45 35.4" fill="#ab1331"/><polygon points="22.37 35.4 45.8 9.96 45.8 10.05 22.45 35.4 22.37 35.4" fill="#ab1331"/><polygon points="22.29 35.4 45.8 9.88 45.8 9.96 22.37 35.4 22.29 35.4" fill="#ab1331"/><polygon points="22.21 35.4 45.8 9.79 45.8 9.88 22.29 35.4 22.21 35.4" fill="#ab1331"/><polygon points="22.13 35.4 45.8 9.71 45.8 9.79 22.21 35.4 22.13 35.4" fill="#ab1331"/><polygon points="22.06 35.4 45.8 9.62 45.8 9.71 22.13 35.4 22.06 35.4" fill="#ab1331"/><polygon points="21.98 35.4 45.8 9.54 45.8 9.62 22.06 35.4 21.98 35.4" fill="#ab1331"/><polygon points="21.9 35.4 45.8 9.45 45.8 9.54 21.98 35.4 21.9 35.4" fill="#ab1331"/><polygon points="21.82 35.4 45.8 9.36 45.8 9.45 21.9 35.4 21.82 35.4" fill="#ab1331"/><polygon points="21.74 35.4 45.8 9.28 45.8 9.36 21.82 35.4 21.74 35.4" fill="#ab1331"/><polygon points="21.66 35.4 45.8 9.19 45.8 9.28 21.74 35.4 21.66 35.4" fill="#ab1331"/><polygon points="21.58 35.4 45.8 9.11 45.8 9.19 21.66 35.4 21.58 35.4" fill="#ab1331"/><polygon points="21.5 35.4 45.8 9.02 45.8 9.11 21.58 35.4 21.5 35.4" fill="#ab1331"/><polygon points="21.42 35.4 45.8 8.94 45.8 9.02 21.5 35.4 21.42 35.4" fill="#ab1331"/><polygon points="21.35 35.4 45.8 8.85 45.8 8.94 21.42 35.4 21.35 35.4" fill="#ab1331"/><polygon points="21.27 35.4 45.8 8.76 45.8 8.85 21.35 35.4 21.27 35.4" fill="#ab1331"/><polygon points="21.19 35.4 45.8 8.68 45.8 8.76 21.27 35.4 21.19 35.4" fill="#ab1331"/><polygon points="21.11 35.4 45.8 8.59 45.8 8.68 21.19 35.4 21.11 35.4" fill="#ab1331"/><polygon points="21.03 35.4 45.8 8.51 45.8 8.59 21.11 35.4 21.03 35.4" fill="#ab1331"/><polygon points="20.95 35.4 45.8 8.42 45.8 8.51 21.03 35.4 20.95 35.4" fill="#ab1331"/><polygon points="20.87 35.4 45.8 8.34 45.8 8.42 20.95 35.4 20.87 35.4" fill="#ab1331"/><polygon points="20.79 35.4 45.8 8.25 45.8 8.34 20.87 35.4 20.79 35.4" fill="#ab1331"/><polygon points="20.71 35.4 45.8 8.16 45.8 8.25 20.79 35.4 20.71 35.4" fill="#ab1331"/><polygon points="20.63 35.4 45.8 8.08 45.8 8.16 20.71 35.4 20.63 35.4" fill="#ab1331"/><polygon points="20.56 35.4 45.8 7.99 45.8 8.08 20.63 35.4 20.56 35.4" fill="#ab1331"/><polygon points="20.48 35.4 45.8 7.91 45.8 7.99 20.56 35.4 20.48 35.4" fill="#ab1331"/><polygon points="20.4 35.4 45.8 7.82 45.8 7.91 20.48 35.4 20.4 35.4" fill="#ab1331"/><polygon points="20.32 35.4 45.8 7.74 45.8 7.82 20.4 35.4 20.32 35.4" fill="#ab1331"/><polygon points="20.24 35.4 45.8 7.65 45.8 7.74 20.32 35.4 20.24 35.4" fill="#ab1331"/><polygon points="20.16 35.4 45.8 7.56 45.8 7.65 20.24 35.4 20.16 35.4" fill="#ab1331"/><polygon points="20.08 35.4 45.8 7.48 45.8 7.56 20.16 35.4 20.08 35.4" fill="#ab1331"/><polygon points="20 35.4 45.8 7.39 45.8 7.48 20.08 35.4 20 35.4" fill="#ab1331"/><polygon points="19.92 35.4 45.8 7.31 45.8 7.39 20 35.4 19.92 35.4" fill="#ab1331"/><polygon points="19.85 35.4 45.8 7.22 45.8 7.31 19.92 35.4 19.85 35.4" fill="#ab1331"/><polygon points="19.77 35.4 45.8 7.14 45.8 7.22 19.85 35.4 19.77 35.4" fill="#ab1331"/><polygon points="19.69 35.4 45.8 7.05 45.8 7.14 19.77 35.4 19.69 35.4" fill="#ab1331"/><polygon points="19.61 35.4 45.8 6.97 45.8 7.05 19.69 35.4 19.61 35.4" fill="#ab1331"/><polygon points="19.53 35.4 45.8 6.88 45.8 6.97 19.61 35.4 19.53 35.4" fill="#ab1331"/><polygon points="19.45 35.4 45.8 6.79 45.8 6.88 19.53 35.4 19.45 35.4" fill="#ab1331"/><polygon points="19.37 35.4 45.8 6.71 45.8 6.79 19.45 35.4 19.37 35.4" fill="#ab1331"/><polygon points="19.29 35.4 45.8 6.62 45.8 6.71 19.37 35.4 19.29 35.4" fill="#ab1331"/><polygon points="19.21 35.4 45.8 6.54 45.8 6.62 19.29 35.4 19.21 35.4" fill="#ab1331"/><polygon points="19.14 35.4 45.8 6.45 45.8 6.54 19.21 35.4 19.14 35.4" fill="#ab1331"/><polygon points="19.06 35.4 45.8 6.37 45.8 6.45 19.14 35.4 19.06 35.4" fill="#ab1331"/><polygon points="18.98 35.4 45.8 6.28 45.8 6.37 19.06 35.4 18.98 35.4" fill="#ab1331"/><polygon points="18.9 35.4 45.79 6.2 45.8 6.2 45.8 6.28 18.98 35.4 18.9 35.4" fill="#ab1331"/><polygon points="18.82 35.4 45.72 6.2 45.79 6.2 18.9 35.4 18.82 35.4" fill="#ab1331"/><polygon points="18.74 35.4 45.64 6.2 45.72 6.2 18.82 35.4 18.74 35.4" fill="#ab1331"/><polygon points="18.66 35.4 45.56 6.2 45.64 6.2 18.74 35.4 18.66 35.4" fill="#ab1331"/><polygon points="18.58 35.4 45.48 6.2 45.56 6.2 18.66 35.4 18.58 35.4" fill="#ab1331"/><polygon points="18.5 35.4 45.4 6.2 45.48 6.2 18.58 35.4 18.5 35.4" fill="#ab1331"/><polygon points="18.43 35.4 45.32 6.2 45.4 6.2 18.5 35.4 18.43 35.4" fill="#ab1331"/><polygon points="18.35 35.4 45.24 6.2 45.32 6.2 18.43 35.4 18.35 35.4" fill="#ab1331"/><polygon points="18.27 35.4 45.16 6.2 45.24 6.2 18.35 35.4 18.27 35.4" fill="#ab1331"/><polygon points="18.19 35.4 45.08 6.2 45.16 6.2 18.27 35.4 18.19 35.4" fill="#ab1331"/><polygon points="18.11 35.4 45.01 6.2 45.08 6.2 18.19 35.4 18.11 35.4" fill="#ab1331"/><polygon points="18.03 35.4 44.93 6.2 45.01 6.2 18.11 35.4 18.03 35.4" fill="#ab1331"/><polygon points="17.95 35.4 44.85 6.2 44.93 6.2 18.03 35.4 17.95 35.4" fill="#ab1331"/><polygon points="44.85 6.2 17.95 35.4 16.4 35.4 16.4 6.2 44.85 6.2" fill="#ab1331"/></g><polygon points="62.6 21.38 60.38 23.7 43.75 9.88 45.76 7.56 62.6 21.38" fill="#ab1331"/><g clip-path="url(#uuid-fad649fd-4d86-4a2c-aed5-69c4ea23e697)"><polygon points="43.75 10.48 59.65 23.7 43.75 23.7 43.75 10.48" fill="#ab1331"/><polygon points="43.75 10.4 59.75 23.7 59.65 23.7 43.75 10.48 43.75 10.4" fill="#ab1331"/><polygon points="43.75 10.32 59.84 23.7 59.75 23.7 43.75 10.4 43.75 10.32" fill="#ab1331"/><polygon points="43.75 10.25 59.94 23.7 59.84 23.7 43.75 10.32 43.75 10.25" fill="#ab1331"/><polygon points="43.75 10.17 60.03 23.7 59.94 23.7 43.75 10.25 43.75 10.17" fill="#ab1331"/><polygon points="43.75 10.09 60.13 23.7 60.03 23.7 43.75 10.17 43.75 10.09" fill="#ab1331"/><polygon points="43.75 10.01 60.22 23.7 60.13 23.7 43.75 10.09 43.75 10.01" fill="#ab1331"/><polygon points="43.75 9.93 60.32 23.7 60.22 23.7 43.75 10.01 43.75 9.93" fill="#ab1331"/><polygon points="43.75 9.85 60.41 23.7 60.32 23.7 43.75 9.93 43.75 9.85" fill="#ab1331"/><polygon points="43.75 9.77 60.51 23.7 60.41 23.7 43.75 9.85 43.75 9.77" fill="#ab1331"/><polygon points="43.75 9.69 60.6 23.7 60.51 23.7 43.75 9.77 43.75 9.69" fill="#ab1331"/><polygon points="43.75 9.61 60.7 23.7 60.6 23.7 43.75 9.69 43.75 9.61" fill="#ab1331"/><polygon points="43.75 9.54 60.79 23.7 60.7 23.7 43.75 9.61 43.75 9.54" fill="#ab1331"/><polygon points="43.75 9.46 60.89 23.7 60.79 23.7 43.75 9.54 43.75 9.46" fill="#ab1331"/><polygon points="43.75 9.38 60.98 23.7 60.89 23.7 43.75 9.46 43.75 9.38" fill="#ab1331"/><polygon points="43.75 9.3 61.08 23.7 60.98 23.7 43.75 9.38 43.75 9.3" fill="#ab1331"/><polygon points="43.75 9.22 61.17 23.7 61.08 23.7 43.75 9.3 43.75 9.22" fill="#ab1331"/><polygon points="43.75 9.14 61.27 23.7 61.17 23.7 43.75 9.22 43.75 9.14" fill="#ab1331"/><polygon points="43.75 9.06 61.36 23.7 61.27 23.7 43.75 9.14 43.75 9.06" fill="#ab1331"/><polygon points="43.75 8.98 61.46 23.7 61.36 23.7 43.75 9.06 43.75 8.98" fill="#ab1331"/><polygon points="43.75 8.9 61.55 23.7 61.46 23.7 43.75 8.98 43.75 8.9" fill="#ab1331"/><polygon points="43.75 8.82 61.65 23.7 61.55 23.7 43.75 8.9 43.75 8.82" fill="#ab1331"/><polygon points="43.75 8.75 61.74 23.7 61.65 23.7 43.75 8.82 43.75 8.75" fill="#ab1331"/><polygon points="43.75 8.67 61.84 23.7 61.74 23.7 43.75 8.75 43.75 8.67" fill="#ab1331"/><polygon points="43.75 8.59 61.94 23.7 61.84 23.7 43.75 8.67 43.75 8.59" fill="#ab1331"/><polygon points="43.75 8.51 62.03 23.7 61.94 23.7 43.75 8.59 43.75 8.51" fill="#ab1331"/><polygon points="43.75 8.43 62.13 23.7 62.03 23.7 43.75 8.51 43.75 8.43" fill="#ab1331"/><polygon points="43.75 8.35 62.22 23.7 62.22 23.7 62.13 23.7 43.75 8.43 43.75 8.35" fill="#ab1331"/><polygon points="43.75 8.27 62.26 23.65 62.22 23.7 43.75 8.35 43.75 8.27" fill="#ab1331"/><polygon points="43.75 8.19 62.3 23.6 62.26 23.65 43.75 8.27 43.75 8.19" fill="#ab1331"/><polygon points="43.75 8.11 62.33 23.56 62.3 23.6 43.75 8.19 43.75 8.11" fill="#ab1331"/><polygon points="43.75 8.04 62.37 23.51 62.33 23.56 43.75 8.11 43.75 8.04" fill="#ab1331"/><polygon points="43.75 8.03 43.78 7.99 62.41 23.46 62.37 23.51 43.75 8.04 43.75 8.03" fill="#ab1331"/><polygon points="43.78 7.99 43.82 7.94 62.45 23.42 62.41 23.46 43.78 7.99" fill="#ab1331"/><polygon points="43.82 7.94 43.86 7.89 62.49 23.37 62.45 23.42 43.82 7.94" fill="#ab1331"/><polygon points="43.86 7.89 43.9 7.85 62.53 23.32 62.49 23.37 43.86 7.89" fill="#ab1331"/><polygon points="43.9 7.85 43.93 7.8 62.56 23.28 62.53 23.32 43.9 7.85" fill="#ab1331"/><polygon points="43.93 7.8 43.97 7.75 62.6 23.23 62.6 23.23 62.56 23.28 43.93 7.8" fill="#ab1331"/><polygon points="43.97 7.75 44.01 7.7 62.6 23.15 62.6 23.23 43.97 7.75" fill="#ab1331"/><polygon points="44.01 7.7 44.05 7.66 62.6 23.07 62.6 23.15 44.01 7.7" fill="#ab1331"/><polygon points="44.05 7.66 44.09 7.61 62.6 22.99 62.6 23.07 44.05 7.66" fill="#ab1331"/><polygon points="44.09 7.61 44.13 7.56 62.6 22.91 62.6 22.99 44.09 7.61" fill="#ab1331"/><polygon points="44.13 7.56 44.13 7.56 44.22 7.56 62.6 22.83 62.6 22.91 44.13 7.56" fill="#ab1331"/><polygon points="44.32 7.56 62.6 22.75 62.6 22.83 44.22 7.56 44.32 7.56" fill="#ab1331"/><polygon points="44.41 7.56 62.6 22.67 62.6 22.75 44.32 7.56 44.41 7.56" fill="#ab1331"/><polygon points="44.51 7.56 62.6 22.59 62.6 22.67 44.41 7.56 44.51 7.56" fill="#ab1331"/><polygon points="44.6 7.56 62.6 22.52 62.6 22.59 44.51 7.56 44.6 7.56" fill="#ab1331"/><polygon points="44.7 7.56 62.6 22.44 62.6 22.52 44.6 7.56 44.7 7.56" fill="#ab1331"/><polygon points="44.79 7.56 62.6 22.36 62.6 22.44 44.7 7.56 44.79 7.56" fill="#ab1331"/><polygon points="44.89 7.56 62.6 22.28 62.6 22.36 44.79 7.56 44.89 7.56" fill="#ab1331"/><polygon points="44.98 7.56 62.6 22.2 62.6 22.28 44.89 7.56 44.98 7.56" fill="#ab1331"/><polygon points="45.08 7.56 62.6 22.12 62.6 22.2 44.98 7.56 45.08 7.56" fill="#ab1331"/><polygon points="45.17 7.56 62.6 22.04 62.6 22.12 45.08 7.56 45.17 7.56" fill="#ab1331"/><polygon points="45.27 7.56 62.6 21.96 62.6 22.04 45.17 7.56 45.27 7.56" fill="#ab1331"/><polygon points="45.36 7.56 62.6 21.88 62.6 21.96 45.27 7.56 45.36 7.56" fill="#ab1331"/><polygon points="45.46 7.56 62.6 21.81 62.6 21.88 45.36 7.56 45.46 7.56" fill="#ab1331"/><polygon points="45.55 7.56 62.6 21.73 62.6 21.81 45.46 7.56 45.55 7.56" fill="#ab1331"/><polygon points="45.65 7.56 62.6 21.65 62.6 21.73 45.55 7.56 45.65 7.56" fill="#ab1331"/><polygon points="45.74 7.56 62.6 21.57 62.6 21.65 45.65 7.56 45.74 7.56" fill="#ab1331"/><polygon points="45.84 7.56 62.6 21.49 62.6 21.57 45.74 7.56 45.84 7.56" fill="#ab1331"/><polygon points="45.93 7.56 62.6 21.41 62.6 21.49 45.84 7.56 45.93 7.56" fill="#ab1331"/><polygon points="62.6 21.41 45.93 7.56 62.6 7.56 62.6 21.41" fill="#ab1331"/></g><path d="M118.56,34.5c.1.2.2.4.1.6,0,.2-.2.3-.4.3h-5.5L81.56,3.3l2.6-2.5C84.96,0,85.66.5,86.56,1.4h0c0,.1.1.3.1.3l.2.2.2.2.2.3.3.3.3.3.3.4.4.4.4.4.4.4.5.5.5.5.5.5.5.6.6.6.6.6.6.6.6.6.6.6.6.7.7.7.7.7.7.7.7.7.7.7.7.7.7.7.7.7.7.7.7.7.7.7.7.7.7.7.7.7.7.7.7.7.7.7.7.7.7.7.7.7.7.7.6.7.6.6.6.6.6.6.6.6.6.6.5.5.5.5.5.5.5.5.4.5.4.4.4.4.3.4.3.3.3.3.3.3.2.2.2.2.2.2h.1v.2h0l.2.3Z" fill="#ab1331"/><g clip-path="url(#uuid-0b039c2e-fedb-4d91-9693-09ace34a4246)"><polygon points="81.56 9.96 106.13 35.4 81.56 35.4 81.56 9.96" fill="#ab1331"/><polygon points="81.56 9.82 106.27 35.4 106.13 35.4 81.56 9.96 81.56 9.82" fill="#ab1331"/><polygon points="81.56 9.68 106.4 35.4 106.27 35.4 81.56 9.82 81.56 9.68" fill="#ab1331"/><polygon points="81.56 9.54 106.54 35.4 106.4 35.4 81.56 9.68 81.56 9.54" fill="#ab1331"/><polygon points="81.56 9.4 106.67 35.4 106.54 35.4 81.56 9.54 81.56 9.4" fill="#ab1331"/><polygon points="81.56 9.27 106.8 35.4 106.67 35.4 81.56 9.4 81.56 9.27" fill="#ab1331"/><polygon points="81.56 9.13 106.94 35.4 106.8 35.4 81.56 9.27 81.56 9.13" fill="#ab1331"/><polygon points="81.56 8.99 107.07 35.4 106.94 35.4 81.56 9.13 81.56 8.99" fill="#ab1331"/><polygon points="81.56 8.85 107.21 35.4 107.07 35.4 81.56 8.99 81.56 8.85" fill="#ab1331"/><polygon points="81.56 8.71 107.34 35.4 107.21 35.4 81.56 8.85 81.56 8.71" fill="#ab1331"/><polygon points="81.56 8.57 107.47 35.4 107.34 35.4 81.56 8.71 81.56 8.57" fill="#ab1331"/><polygon points="81.56 8.43 107.61 35.4 107.47 35.4 81.56 8.57 81.56 8.43" fill="#ab1331"/><polygon points="81.56 8.3 107.74 35.4 107.61 35.4 81.56 8.43 81.56 8.3" fill="#ab1331"/><polygon points="81.56 8.16 107.88 35.4 107.74 35.4 81.56 8.3 81.56 8.16" fill="#ab1331"/><polygon points="81.56 8.02 108.01 35.4 107.88 35.4 81.56 8.16 81.56 8.02" fill="#ab1331"/><polygon points="81.56 7.88 108.14 35.4 108.01 35.4 81.56 8.02 81.56 7.88" fill="#ab1331"/><polygon points="81.56 7.74 108.28 35.4 108.14 35.4 81.56 7.88 81.56 7.74" fill="#ab1331"/><polygon points="81.56 7.6 108.41 35.4 108.28 35.4 81.56 7.74 81.56 7.6" fill="#ab1331"/><polygon points="81.56 7.46 108.55 35.4 108.41 35.4 81.56 7.6 81.56 7.46" fill="#ab1331"/><polygon points="81.56 7.32 108.68 35.4 108.55 35.4 81.56 7.46 81.56 7.32" fill="#ab1331"/><polygon points="81.56 7.19 108.81 35.4 108.68 35.4 81.56 7.32 81.56 7.19" fill="#ab1331"/><polygon points="81.56 7.05 108.95 35.4 108.81 35.4 81.56 7.19 81.56 7.05" fill="#ab1331"/><polygon points="81.56 6.91 109.08 35.4 108.95 35.4 81.56 7.05 81.56 6.91" fill="#ab1331"/><polygon points="81.56 6.77 109.22 35.4 109.08 35.4 81.56 6.91 81.56 6.77" fill="#ab1331"/><polygon points="81.56 6.63 109.35 35.4 109.22 35.4 81.56 6.77 81.56 6.63" fill="#ab1331"/><polygon points="81.56 6.49 109.48 35.4 109.35 35.4 81.56 6.63 81.56 6.49" fill="#ab1331"/><polygon points="81.56 6.35 109.62 35.4 109.48 35.4 81.56 6.49 81.56 6.35" fill="#ab1331"/><polygon points="81.56 6.21 109.75 35.4 109.62 35.4 81.56 6.35 81.56 6.21" fill="#ab1331"/><polygon points="81.56 6.08 109.88 35.4 109.75 35.4 81.56 6.21 81.56 6.08" fill="#ab1331"/><polygon points="81.56 5.94 110.02 35.4 109.88 35.4 81.56 6.08 81.56 5.94" fill="#ab1331"/><polygon points="81.56 5.8 110.15 35.4 110.02 35.4 81.56 5.94 81.56 5.8" fill="#ab1331"/><polygon points="81.56 5.66 110.29 35.4 110.15 35.4 81.56 5.8 81.56 5.66" fill="#ab1331"/><polygon points="81.56 5.52 110.42 35.4 110.29 35.4 81.56 5.66 81.56 5.52" fill="#ab1331"/><polygon points="81.56 5.38 110.55 35.4 110.42 35.4 81.56 5.52 81.56 5.38" fill="#ab1331"/><polygon points="81.56 5.24 110.69 35.4 110.55 35.4 81.56 5.38 81.56 5.24" fill="#ab1331"/><polygon points="81.56 5.11 110.82 35.4 110.69 35.4 81.56 5.24 81.56 5.11" fill="#ab1331"/><polygon points="81.56 4.97 110.96 35.4 110.82 35.4 81.56 5.11 81.56 4.97" fill="#ab1331"/><polygon points="81.56 4.83 111.09 35.4 110.96 35.4 81.56 4.97 81.56 4.83" fill="#ab1331"/><polygon points="81.56 4.69 111.22 35.4 111.09 35.4 81.56 4.83 81.56 4.69" fill="#ab1331"/><polygon points="81.56 4.55 111.36 35.4 111.22 35.4 81.56 4.69 81.56 4.55" fill="#ab1331"/><polygon points="81.56 4.41 111.49 35.4 111.36 35.4 81.56 4.55 81.56 4.41" fill="#ab1331"/><polygon points="81.56 4.27 111.63 35.4 111.49 35.4 81.56 4.41 81.56 4.27" fill="#ab1331"/><polygon points="81.56 4.13 111.76 35.4 111.63 35.4 81.56 4.27 81.56 4.13" fill="#ab1331"/><polygon points="81.56 4 111.89 35.4 111.76 35.4 81.56 4.13 81.56 4" fill="#ab1331"/><polygon points="81.56 3.86 112.03 35.4 111.89 35.4 81.56 4 81.56 3.86" fill="#ab1331"/><polygon points="81.56 3.72 112.16 35.4 112.03 35.4 81.56 3.86 81.56 3.72" fill="#ab1331"/><polygon points="81.56 3.58 112.3 35.4 112.16 35.4 81.56 3.72 81.56 3.58" fill="#ab1331"/><polygon points="81.56 3.44 112.43 35.4 112.3 35.4 81.56 3.58 81.56 3.44" fill="#ab1331"/><polygon points="81.56 3.3 112.56 35.4 112.43 35.4 81.56 3.44 81.56 3.3" fill="#ab1331"/><polygon points="81.56 3.16 112.7 35.4 112.56 35.4 81.56 3.3 81.56 3.16" fill="#ab1331"/><polygon points="81.56 3.03 112.83 35.4 112.7 35.4 81.56 3.16 81.56 3.03" fill="#ab1331"/><polygon points="81.56 2.89 112.97 35.4 112.83 35.4 81.56 3.03 81.56 2.89" fill="#ab1331"/><polygon points="81.56 2.75 113.1 35.4 112.97 35.4 81.56 2.89 81.56 2.75" fill="#ab1331"/><polygon points="81.56 2.61 113.23 35.4 113.1 35.4 81.56 2.75 81.56 2.61" fill="#ab1331"/><polygon points="81.56 2.47 113.37 35.4 113.23 35.4 81.56 2.61 81.56 2.47" fill="#ab1331"/><polygon points="81.56 2.33 113.5 35.4 113.37 35.4 81.56 2.47 81.56 2.33" fill="#ab1331"/><polygon points="81.56 2.19 113.64 35.4 113.5 35.4 81.56 2.33 81.56 2.19" fill="#ab1331"/><polygon points="81.56 2.05 113.77 35.4 113.64 35.4 81.56 2.19 81.56 2.05" fill="#ab1331"/><polygon points="81.56 1.92 113.9 35.4 113.77 35.4 81.56 2.05 81.56 1.92" fill="#ab1331"/><polygon points="81.56 1.78 114.04 35.4 113.9 35.4 81.56 1.92 81.56 1.78" fill="#ab1331"/><polygon points="81.56 1.64 114.17 35.4 114.04 35.4 81.56 1.78 81.56 1.64" fill="#ab1331"/><polygon points="114.17 35.4 81.56 1.64 81.56 0 118.76 0 118.76 35.4 114.17 35.4" fill="#ab1331"/></g><g clip-path="url(#uuid-260bd2b0-dc1c-4793-8a2d-b8ede28e5c00)"><polygon points="60.76 25.8 60.3 25.31 60.3 23.39 82.45 3.3 83.34 3.3 83.8 3.79 83.8 25.8 60.76 25.8" fill="#900621"/><polygon points="60.3 22.68 81.66 3.3 81.76 3.3 60.3 22.77 60.3 22.68" fill="#ab1331"/><polygon points="82.35 3.3 82.25 3.3 82.15 3.3 82.06 3.3 81.96 3.3 81.86 3.3 81.76 3.3 60.3 22.77 60.3 22.86 60.3 22.95 60.3 23.04 60.3 23.13 60.3 23.22 60.3 23.31 60.3 23.39 82.45 3.3 82.35 3.3" fill="#ab1331"/><polygon points="81.57 3.3 60.3 22.59 60.3 22.68 81.66 3.3 81.57 3.3" fill="#ab1331"/><polygon points="60.3 22.51 81.47 3.3 81.57 3.3 60.3 22.59 60.3 22.51" fill="#e60202"/><polygon points="60.3 22.42 81.37 3.3 81.47 3.3 60.3 22.51 60.3 22.42" fill="#e50202"/><polygon points="60.3 22.33 81.27 3.3 81.37 3.3 60.3 22.42 60.3 22.33" fill="#e40202"/><polygon points="60.3 22.24 81.17 3.3 81.27 3.3 60.3 22.33 60.3 22.24" fill="#e30202"/><polygon points="60.3 22.15 81.08 3.3 81.17 3.3 60.3 22.24 60.3 22.15" fill="#e20202"/><polygon points="60.3 22.06 80.98 3.3 81.08 3.3 60.3 22.15 60.3 22.06" fill="#e10202"/><polygon points="60.3 21.97 80.88 3.3 80.98 3.3 60.3 22.06 60.3 21.97" fill="#e00202"/><polygon points="60.3 21.88 80.78 3.3 80.88 3.3 60.3 21.97 60.3 21.88" fill="#df0202"/><polygon points="60.3 21.79 80.68 3.3 80.78 3.3 60.3 21.88 60.3 21.79" fill="#de0202"/><polygon points="60.3 21.7 80.59 3.3 80.68 3.3 60.3 21.79 60.3 21.7" fill="#dd0202"/><polygon points="60.3 21.62 80.49 3.3 80.59 3.3 60.3 21.7 60.3 21.62" fill="#dc0202"/><polygon points="60.3 21.53 80.39 3.3 80.49 3.3 60.3 21.62 60.3 21.53" fill="#db0202"/><polygon points="60.3 21.44 80.29 3.3 80.39 3.3 60.3 21.53 60.3 21.44" fill="#da0202"/><polygon points="60.3 21.35 80.19 3.3 80.29 3.3 60.3 21.44 60.3 21.35" fill="#d90202"/><polygon points="60.3 21.26 80.1 3.3 80.19 3.3 60.3 21.35 60.3 21.26" fill="#d80202"/><polygon points="60.3 21.17 80 3.3 80.1 3.3 60.3 21.26 60.3 21.17" fill="#d70202"/><polygon points="60.3 21.08 79.9 3.3 80 3.3 60.3 21.17 60.3 21.08" fill="#d60202"/><polygon points="60.3 20.99 79.8 3.3 79.9 3.3 60.3 21.08 60.3 20.99" fill="#d50202"/><polygon points="60.3 20.9 79.7 3.3 79.8 3.3 60.3 20.99 60.3 20.9" fill="#d40202"/><polygon points="60.3 20.82 79.6 3.3 79.7 3.3 60.3 20.9 60.3 20.82" fill="#d30202"/><polygon points="60.3 20.73 79.51 3.3 79.6 3.3 60.3 20.82 60.3 20.73" fill="#d20202"/><polygon points="60.3 20.64 79.41 3.3 79.51 3.3 60.3 20.73 60.3 20.64" fill="#d00202"/><polygon points="60.3 20.55 79.31 3.3 79.41 3.3 60.3 20.64 60.3 20.55" fill="#cf0202"/><polygon points="60.3 20.46 79.21 3.3 79.31 3.3 60.3 20.55 60.3 20.46" fill="#ce0202"/><polygon points="60.3 20.37 79.11 3.3 79.21 3.3 60.3 20.46 60.3 20.37" fill="#cd0202"/><polygon points="60.3 20.28 79.02 3.3 79.11 3.3 60.3 20.37 60.3 20.28" fill="#cc0202"/><polygon points="60.3 20.19 78.92 3.3 79.02 3.3 60.3 20.28 60.3 20.19" fill="#cb0202"/><polygon points="60.3 20.1 78.82 3.3 78.92 3.3 60.3 20.19 60.3 20.1" fill="#ca0202"/><polygon points="60.3 20.01 78.72 3.3 78.82 3.3 60.3 20.1 60.3 20.01" fill="#c90202"/><polygon points="60.3 19.93 78.62 3.3 78.72 3.3 60.3 20.01 60.3 19.93" fill="#c80202"/><polygon points="60.3 19.84 78.53 3.3 78.62 3.3 60.3 19.93 60.3 19.84" fill="#c70202"/><polygon points="60.3 19.75 78.43 3.3 78.53 3.3 60.3 19.84 60.3 19.75" fill="#c60202"/><polygon points="60.3 19.66 78.33 3.3 78.43 3.3 60.3 19.75 60.3 19.66" fill="#c50202"/><polygon points="60.3 19.57 78.23 3.3 78.33 3.3 60.3 19.66 60.3 19.57" fill="#c40202"/><polygon points="60.3 19.48 78.13 3.3 78.23 3.3 60.3 19.57 60.3 19.48" fill="#c30202"/><polygon points="60.3 19.39 78.04 3.3 78.13 3.3 60.3 19.48 60.3 19.39" fill="#c20202"/><polygon points="60.3 19.3 77.94 3.3 78.04 3.3 60.3 19.39 60.3 19.3" fill="#c10202"/><polygon points="60.3 19.21 77.84 3.3 77.94 3.3 60.3 19.3 60.3 19.21" fill="#c00202"/><polygon points="60.3 19.13 77.74 3.3 77.84 3.3 60.3 19.21 60.3 19.13" fill="#bf0202"/><polygon points="60.3 19.04 77.64 3.3 77.74 3.3 60.3 19.13 60.3 19.04" fill="#be0202"/><polygon points="60.3 18.95 77.55 3.3 77.64 3.3 60.3 19.04 60.3 18.95" fill="#bd0202"/><polygon points="60.3 18.86 77.45 3.3 77.55 3.3 60.3 18.95 60.3 18.86" fill="#bc0202"/><polygon points="60.3 18.77 77.35 3.3 77.45 3.3 60.3 18.86 60.3 18.77" fill="#bb0202"/><polygon points="60.3 18.68 77.25 3.3 77.35 3.3 60.3 18.77 60.3 18.68" fill="#ba0202"/><polygon points="60.3 18.59 77.15 3.3 77.25 3.3 60.3 18.68 60.3 18.59" fill="#b90202"/><polygon points="60.3 18.5 77.06 3.3 77.15 3.3 60.3 18.59 60.3 18.5" fill="#b80202"/><polygon points="60.3 18.41 76.96 3.3 77.06 3.3 60.3 18.5 60.3 18.41" fill="#b70202"/><polygon points="60.3 18.32 76.86 3.3 76.96 3.3 60.3 18.41 60.3 18.32" fill="#b60202"/><polygon points="60.3 18.24 76.76 3.3 76.86 3.3 60.3 18.32 60.3 18.24" fill="#b50202"/><polygon points="60.3 18.15 76.66 3.3 76.76 3.3 60.3 18.24 60.3 18.15" fill="#b40202"/><polygon points="60.3 18.06 76.57 3.3 76.66 3.3 60.3 18.15 60.3 18.06" fill="#b30202"/><polygon points="76.57 3.3 60.3 18.06 60.3 3.3 76.57 3.3" fill="#b30202"/></g><g isolation="isolate"><g isolation="isolate"><g isolation="isolate"><path d="M43.28,45.88v-4.09c-1.28-.36-2.21-.92-2.81-1.66-.6-.74-.89-1.64-.89-2.69s.34-1.96,1.01-2.69,1.57-1.14,2.69-1.25v-.97h1.42v.97c1.04.12,1.86.48,2.47,1.06.61.58,1,1.36,1.17,2.34l-2.47.32c-.15-.77-.54-1.29-1.17-1.56v3.82c1.56.42,2.63.97,3.19,1.65s.85,1.54.85,2.59c0,1.18-.36,2.17-1.07,2.98s-1.7,1.3-2.97,1.48v1.83h-1.42v-1.78c-1.13-.14-2.04-.56-2.74-1.26s-1.15-1.7-1.35-2.98l2.55-.27c.1.52.3.97.59,1.35.29.38.61.65.96.82ZM43.28,35.63c-.38.13-.69.35-.92.66-.23.31-.34.66-.34,1.04,0,.34.1.67.31.96.21.3.52.54.95.72v-3.38ZM44.69,46.02c.49-.09.88-.32,1.19-.68.31-.36.46-.79.46-1.27,0-.44-.13-.81-.39-1.13-.26-.32-.68-.56-1.26-.73v3.81Z" fill="#900621"/></g></g></g><g isolation="isolate"><g isolation="isolate"><g isolation="isolate"><path d="M83.48,39.68v-4.09c-1.28-.36-2.21-.92-2.81-1.66s-.89-1.64-.89-2.69.34-1.96,1.01-2.69,1.57-1.14,2.69-1.25v-.97h1.42v.97c1.04.12,1.86.48,2.47,1.06s1,1.36,1.17,2.34l-2.47.32c-.15-.77-.54-1.29-1.17-1.56v3.82c1.56.42,2.63.97,3.19,1.65s.85,1.54.85,2.59c0,1.18-.36,2.17-1.07,2.98-.71.81-1.7,1.3-2.97,1.48v1.83h-1.42v-1.78c-1.13-.14-2.04-.56-2.74-1.26s-1.15-1.7-1.35-2.98l2.55-.27c.1.52.3.97.59,1.35s.61.65.96.82ZM83.48,29.43c-.38.13-.69.35-.92.66s-.34.66-.34,1.04c0,.34.1.67.31.96s.52.54.95.72v-3.38ZM84.89,39.82c.49-.09.89-.32,1.19-.68s.46-.79.46-1.27c0-.44-.13-.81-.39-1.13s-.68-.56-1.26-.73v3.81Z" fill="#900621"/></g></g></g><path d="M0,55.41s22.72,17.78,132.77,2.57c0,0,59.62-8.27,87.83,16.14,0,0-43.19-12.71-119.74,0C21.75,87.26,0,55.41,0,55.41Z" fill="url(#uuid-beeba97e-acbd-4a2b-9d94-239516108295)"/></svg>